<svg width="26" height="26" viewBox="0 0 26 26" fill="none" xmlns="http://www.w3.org/2000/svg">
<g clip-path="url(#clip0_698_1020)">
<path d="M24.103 0H2.27403C1.22835 0 0.382812 0.82553 0.382812 1.84618V23.7652C0.382812 24.7859 1.22835 25.6164 2.27403 25.6164H24.103C25.1487 25.6164 25.9992 24.7859 25.9992 23.7702V1.84618C25.9992 0.82553 25.1487 0 24.103 0ZM7.98269 21.829H4.18025V9.60116H7.98269V21.829ZM6.08147 7.93509C4.86069 7.93509 3.87505 6.94946 3.87505 5.73368C3.87505 4.5179 4.86069 3.53227 6.08147 3.53227C7.29725 3.53227 8.28288 4.5179 8.28288 5.73368C8.28288 6.94445 7.29725 7.93509 6.08147 7.93509ZM22.2118 21.829H18.4144V15.8852C18.4144 14.4693 18.3894 12.6431 16.4381 12.6431C14.4618 12.6431 14.1617 14.1891 14.1617 15.7851V21.829H10.3692V9.60116H14.0116V11.2722H14.0616C14.5669 10.3116 15.8077 9.29596 17.6539 9.29596C21.5014 9.29596 22.2118 11.8276 22.2118 15.1197V21.829Z" fill="#FFF8F8"/>
</g>
<defs>
<clipPath id="clip0_698_1020">
<rect width="25.6164" height="25.6164" fill="white" transform="translate(0.382812)"/>
</clipPath>
</defs>
</svg>
