<svg width="27" height="26" viewBox="0 0 27 26" fill="none" xmlns="http://www.w3.org/2000/svg">
<path fill-rule="evenodd" clip-rule="evenodd" d="M26.383 12.8082C26.383 19.882 20.6486 25.6164 13.5748 25.6164C6.50104 25.6164 0.766602 19.882 0.766602 12.8082C0.766602 5.73443 6.50104 0 13.5748 0C20.6486 0 26.383 5.73443 26.383 12.8082ZM14.0339 9.4552C12.7881 9.97336 10.2983 11.0458 6.56447 12.6726C5.95815 12.9137 5.64053 13.1496 5.61162 13.3802C5.56275 13.77 6.05088 13.9235 6.71558 14.1325C6.806 14.161 6.89968 14.1904 6.99573 14.2216C7.64969 14.4342 8.52939 14.6829 8.98671 14.6928C9.40154 14.7018 9.86454 14.5307 10.3757 14.1797C13.8644 11.8248 15.6652 10.6345 15.7783 10.6088C15.8581 10.5907 15.9686 10.568 16.0435 10.6345C16.1184 10.7011 16.111 10.8272 16.1031 10.861C16.0547 11.0671 14.1386 12.8485 13.1471 13.7703C12.8379 14.0577 12.6187 14.2616 12.5739 14.3081C12.4734 14.4124 12.3711 14.5111 12.2728 14.6059C11.6652 15.1916 11.2096 15.6308 12.298 16.348C12.821 16.6927 13.2395 16.9777 13.6571 17.262C14.1131 17.5726 14.5679 17.8823 15.1564 18.268C15.3063 18.3663 15.4495 18.4684 15.5889 18.5678C16.1196 18.9461 16.5964 19.286 17.1854 19.2318C17.5276 19.2003 17.8811 18.8785 18.0607 17.9187C18.485 15.6503 19.319 10.7355 19.5118 8.71024C19.5287 8.53279 19.5074 8.30571 19.4904 8.20602C19.4733 8.10633 19.4377 7.9643 19.3081 7.85916C19.1546 7.73464 18.9177 7.70838 18.8118 7.71024C18.33 7.71873 17.5909 7.97573 14.0339 9.4552Z" fill="#FFF8F8"/>
</svg>
